<svg xmlns="http://www.w3.org/2000/svg" width="285.093" height="84.387" xmlns:v="https://vecta.io/nano"><g fill="#5c0836"><path d="M107.017 22.883c-.171-.17-.483-.403-.934-.696s-1.003-.574-1.649-.843a17.69 17.69 0 0 0-2.108-.715c-.758-.208-1.527-.312-2.309-.312-1.369 0-2.402.256-3.097.766s-1.045 1.228-1.045 2.151c0 .706.22 1.265.66 1.679s1.099.766 1.979 1.058l3.299.948c1.71.413 3.194.917 4.453 1.514s2.223 1.374 2.896 2.334 1.008 2.231 1.008 3.81c0 1.386-.256 2.571-.77 3.556s-1.222 1.781-2.125 2.389-1.93 1.052-3.079 1.332-2.37.419-3.666.419a19.05 19.05 0 0 1-3.885-.403c-1.295-.269-2.542-.653-3.739-1.154s-2.297-1.106-3.299-1.815l2.236-4.361c.22.22.61.507 1.173.861s1.246.709 2.053 1.063 1.686.654 2.639.899a11.58 11.58 0 0 0 2.896.366c1.368 0 2.406-.229 3.115-.689s1.063-1.111 1.063-1.958c0-.778-.281-1.386-.843-1.824s-1.345-.822-2.346-1.15l-3.556-1.077c-1.637-.461-3.006-.979-4.105-1.551s-1.919-1.295-2.456-2.172-.806-1.971-.806-3.285c0-1.777.421-3.267 1.265-4.471s1.985-2.117 3.427-2.737 3.042-.932 4.802-.932c1.222 0 2.376.135 3.463.404s2.108.623 3.06 1.063 1.808.916 2.566 1.429l-2.236 4.105m16.75 14.55a5.03 5.03 0 0 0 .66-.857c.171-.286.257-.547.257-.787v-1.895a10.23 10.23 0 0 0-1.906-.553c-.683-.131-1.332-.197-1.943-.197-1.271 0-2.315.268-3.134.804s-1.228 1.245-1.228 2.127a2.51 2.51 0 0 0 .403 1.358c.269.429.659.774 1.173 1.037s1.124.393 1.833.393a5.96 5.96 0 0 0 2.162-.411c.708-.273 1.283-.613 1.723-1.019zm-11.949-.954c0-1.232.348-2.312 1.044-3.241s1.668-1.648 2.914-2.155 2.676-.76 4.289-.76a16.9 16.9 0 0 1 2.456.183c.831.123 1.552.318 2.163.587v-1.022c0-1.199-.361-2.123-1.082-2.771s-1.79-.972-3.207-.972a8.31 8.31 0 0 0-3.006.55c-.953.366-1.955.904-3.005 1.613l-1.577-3.225c1.27-.831 2.572-1.454 3.904-1.869s2.731-.623 4.197-.623c2.737 0 4.868.675 6.396 2.024s2.291 3.276 2.291 5.781v6.035c0 .506.092.868.274 1.084s.482.349.899.397v3.996l-1.191.183a6.67 6.67 0 0 1-.898.073c-.978 0-1.717-.22-2.218-.659a2.8 2.8 0 0 1-.934-1.613l-.11-.989c-.831 1.075-1.87 1.905-3.116 2.492s-2.517.879-3.812.879c-1.271 0-2.414-.259-3.427-.779s-1.809-1.231-2.382-2.137-.861-1.925-.861-3.06m21.625 5.607V22.883h4.912V42.09zm0-21.882v-4.875h4.912v4.875h-4.912m26.462 21.882h-4.911v-10.62c0-1.517-.271-2.624-.807-3.323s-1.283-1.047-2.236-1.047c-.66 0-1.325.167-1.997.502a6.23 6.23 0 0 0-1.815 1.378 5.37 5.37 0 0 0-1.173 2.022v11.09h-4.912V23.067h4.436v3.548c.488-.821 1.112-1.516 1.869-2.084s1.631-1.002 2.62-1.305 2.035-.453 3.135-.453c1.196 0 2.181.212 2.951.634s1.356.991 1.759 1.703.684 1.516.843 2.41a15.4 15.4 0 0 1 .239 2.718v11.851m14.339-.953l-1.503.587a12.34 12.34 0 0 1-1.887.532 10.48 10.48 0 0 1-2.035.201c-.905 0-1.736-.157-2.492-.471a3.92 3.92 0 0 1-1.815-1.508c-.453-.689-.679-1.592-.679-2.704V26.841h-2.529v-3.775h2.529v-5.373h4.911v5.373h4.032v3.775h-4.032v9.261c.025.651.208 1.121.551 1.41s.769.434 1.283.434a4.47 4.47 0 0 0 1.503-.257l1.173-.44.989 3.885m29.396.955v-17.08l-6.671 12.718h-2.823l-6.671-12.718v17.08h-5.057V16.066h5.424l7.697 14.808 7.771-14.808h5.388v26.023h-5.059m19.17-4.655a5.03 5.03 0 0 0 .66-.857c.171-.286.256-.547.256-.787v-1.895a10.2 10.2 0 0 0-1.905-.553 10.35 10.35 0 0 0-1.943-.197c-1.271 0-2.316.268-3.133.804s-1.228 1.245-1.228 2.127a2.51 2.51 0 0 0 .403 1.358c.269.429.66.774 1.173 1.037s1.124.393 1.832.393a5.96 5.96 0 0 0 2.163-.411c.709-.273 1.283-.613 1.723-1.019zm-11.949-.954c0-1.232.349-2.312 1.045-3.241s1.668-1.648 2.913-2.155 2.677-.76 4.289-.76a16.9 16.9 0 0 1 2.455.183c.831.123 1.552.318 2.163.587v-1.022c0-1.199-.36-2.123-1.081-2.771s-1.789-.972-3.207-.972c-1.051 0-2.052.184-3.005.55s-1.955.904-3.005 1.613l-1.576-3.225c1.269-.831 2.571-1.454 3.903-1.869s2.732-.623 4.197-.623c2.736 0 4.868.675 6.396 2.024s2.291 3.276 2.291 5.781v6.035c0 .506.092.868.276 1.084s.481.349.897.397v3.996l-1.192.183c-.353.049-.653.073-.897.073-.977 0-1.717-.22-2.217-.659s-.813-.978-.935-1.613l-.111-.989a8.41 8.41 0 0 1-3.115 2.492c-1.247.586-2.517.879-3.812.879-1.271 0-2.413-.259-3.427-.779s-1.809-1.231-2.384-2.137-.861-1.925-.861-3.06m46.138-13.415l-4.545 14.089-5.167-14.089h-5.095c-.736.005-1.625.413-2.676 1.17s-1.919 1.432-2.603 2.752v-3.922h-4.508V42.09h4.911V30.47c.513-1.075 1.356-1.899 2.529-2.474 1.165-.57 2.487-.857 3.964-.861l5.969 15.007c-.319 1.06-.623 1.885-.917 2.475s-.592 1-.897 1.23-.691.346-1.155.346a5.25 5.25 0 0 1-.971-.109l-1.229-.257v4.251c.465.147.892.251 1.284.311a7.6 7.6 0 0 0 1.173.092c1.099 0 2.095-.201 2.987-.603s1.637-.948 2.236-1.639a7.03 7.03 0 0 0 1.337-2.312l8.064-22.863h-4.692m6.747 9.305l.843-4.472h-1.465v-4.948h4.912v5.021l-1.284 4.398h-3.005m13.643 10.088a13.74 13.74 0 0 1-4.692-.806c-1.489-.538-2.773-1.332-3.848-2.382l1.76-3.189c1.148.929 2.277 1.612 3.389 2.053s2.181.66 3.208.66c.953 0 1.716-.165 2.291-.495s.861-.825.861-1.484c0-.458-.16-.814-.476-1.067s-.776-.476-1.375-.669l-2.181-.651-3.555-1.339c-.953-.434-1.668-.983-2.145-1.646s-.713-1.514-.713-2.551c0-1.254.323-2.333.971-3.238s1.551-1.611 2.712-2.117 2.523-.76 4.087-.76c1.369 0 2.663.215 3.885.641s2.333 1.119 3.336 2.071l-1.98 3.116c-.977-.757-1.905-1.313-2.785-1.668a7.12 7.12 0 0 0-2.676-.531c-.513 0-.996.06-1.448.18s-.819.319-1.1.596-.42.667-.42 1.172c0 .457.128.812.384 1.064s.648.476 1.173.667l1.924.65c1.54.433 2.841.878 3.904 1.335s1.863 1.016 2.4 1.677.807 1.569.807 2.724c0 1.876-.696 3.344-2.089 4.402s-3.261 1.587-5.608 1.587M102.546 76.176c-2.078 0-3.843-.348-5.297-1.044s-2.627-1.656-3.518-2.878-1.546-2.608-1.961-4.16-.623-3.171-.623-4.857V49.969h5.058v13.269a15.49 15.49 0 0 0 .312 3.134c.207 1.014.555 1.924 1.044 2.73a5.38 5.38 0 0 0 1.942 1.906c.806.464 1.808.696 3.005.696 1.222 0 2.242-.237 3.061-.714a5.34 5.34 0 0 0 1.943-1.924c.477-.807.824-1.716 1.045-2.731a14.61 14.61 0 0 0 .329-3.097V49.969h5.022v13.269c0 1.784-.215 3.458-.641 5.021s-1.1 2.939-2.016 4.123-2.095 2.114-3.537 2.786-3.165 1.008-5.168 1.008m31.998-.183h-4.911v-10.62c0-1.517-.27-2.625-.807-3.323s-1.282-1.049-2.235-1.049c-.66 0-1.327.167-1.999.501s-1.277.794-1.813 1.379-.929 1.258-1.173 2.022v11.09h-4.912V56.97h4.435v3.548a7.15 7.15 0 0 1 1.87-2.084c.757-.568 1.631-1.003 2.621-1.305a10.68 10.68 0 0 1 3.134-.453c1.197 0 2.181.212 2.951.635s1.356.99 1.759 1.703a7.54 7.54 0 0 1 .843 2.41c.159.894.239 1.8.239 2.719v11.85m3.186 0V56.787h4.912v19.207zm0-21.882v-4.875h4.912v4.875h-4.912"/><path d="M151.88 75.993l-7.075-19.023h5.096l4.837 14.594 4.875-14.594h4.656l-7.037 19.023h-5.352m16.86-11.033h10.043c-.097-.955-.372-1.785-.824-2.49a4.76 4.76 0 0 0-1.777-1.647c-.733-.395-1.552-.591-2.456-.591-.88 0-1.68.196-2.401.591a4.8 4.8 0 0 0-1.759 1.647c-.453.704-.728 1.534-.825 2.49zm5.021 11.4c-1.539 0-2.932-.26-4.179-.78s-2.308-1.232-3.188-2.138-1.559-1.946-2.035-3.118-.715-2.41-.715-3.715c0-1.812.409-3.468 1.228-4.966s1.991-2.702 3.519-3.608 3.329-1.359 5.407-1.359c2.101 0 3.897.454 5.388 1.361s2.632 2.106 3.427 3.594a10.07 10.07 0 0 1 1.191 4.81l-.036.89-.073.744H168.85c.097.955.384 1.791.861 2.506a4.68 4.68 0 0 0 1.832 1.63c.745.37 1.545.555 2.401.555a5.66 5.66 0 0 0 2.767-.715c.868-.476 1.46-1.105 1.779-1.887l4.215 1.173c-.465.978-1.131 1.845-1.997 2.602s-1.888 1.351-3.061 1.778-2.468.642-3.885.642m23.751-15.321c-1.491 0-2.823.288-3.996.862s-2.016 1.399-2.529 2.474v11.619h-4.911V56.97h4.508v3.922c.684-1.319 1.552-2.357 2.603-3.115s2.163-1.173 3.336-1.246h.623c.147 0 .268.013.367.037v4.471m8.795 15.321a13.74 13.74 0 0 1-4.692-.807c-1.491-.537-2.773-1.331-3.848-2.382l1.759-3.19c1.149.929 2.279 1.614 3.391 2.054s2.181.659 3.208.659c.952 0 1.716-.165 2.289-.495s.861-.825.861-1.484c0-.458-.159-.814-.476-1.067s-.776-.477-1.375-.67l-2.18-.651-3.555-1.339c-.953-.434-1.668-.983-2.145-1.646s-.715-1.514-.715-2.551c0-1.254.324-2.333.972-3.237s1.551-1.61 2.712-2.117 2.523-.76 4.087-.76c1.368 0 2.663.214 3.885.642s2.333 1.118 3.335 2.071l-1.979 3.116c-.977-.758-1.905-1.314-2.785-1.668s-1.772-.531-2.676-.531c-.513 0-.996.06-1.448.18s-.819.32-1.1.596-.42.667-.42 1.172c0 .457.128.812.384 1.065s.647.475 1.172.667l1.925.649c1.54.433 2.84.878 3.904 1.334s1.863 1.017 2.4 1.678.807 1.569.807 2.724c0 1.876-.697 3.343-2.089 4.402s-3.263 1.588-5.608 1.588m9.933-.369V56.787h4.911v19.207zm0-21.882v-4.875h4.911v4.875h-4.911m33.951 2.859l-4.547 14.089-5.168-14.089h-9.796v-5.372h-4.911v5.372h-2.529v3.775h2.529v10.93c0 1.113.225 2.015.677 2.704a3.92 3.92 0 0 0 1.815 1.508c.757.315 1.588.472 2.492.472.684 0 1.361-.068 2.035-.202s1.301-.312 1.887-.532l1.504-.586-.989-3.885-1.173.44c-.489.171-.991.256-1.503.256s-.941-.144-1.284-.434-.525-.759-.549-1.411v-9.261h6.204l6.085 15.301c-.319 1.06-.623 1.885-.917 2.475s-.592 1-.897 1.231-.691.346-1.155.346c-.269 0-.592-.036-.971-.11l-1.228-.257v4.252a8.84 8.84 0 0 0 1.283.311 7.6 7.6 0 0 0 1.173.092c1.1 0 2.095-.202 2.987-.602s1.637-.949 2.236-1.64a7 7 0 0 0 1.337-2.312l8.064-22.863h-4.691"/></g><path d="M33.345 13.725H21.759V-.006h6.952c2.56 0 4.635 2.075 4.635 4.634v9.097m14.159 0H35.919V4.628c0-2.559 2.075-4.634 4.635-4.634h6.951v13.731" fill="#ae0c33"/><path d="M44.253 74.234a13.1 13.1 0 0 0-7.901 3.559v-3.636c2.971-.74 5.236-3.354 5.386-6.569a7.11 7.11 0 0 0-3.119-6.225l.774-3.097a6.84 6.84 0 0 0-9.523 0l.775 3.097c-1.793 1.216-3.01 3.231-3.119 5.56-.161 3.447 2.159 6.434 5.386 7.235v3.635a13.1 13.1 0 0 0-7.901-3.559c-.285-3.311-1.797-6.271-4.079-8.425 2.543-2.399 4.132-5.797 4.132-9.568a13.38 13.38 0 0 0-.061-1.258 13.19 13.19 0 0 0 1.257.062 13.1 13.1 0 0 0 8.372-3.008 13.1 13.1 0 0 0 8.372 3.008 13.2 13.2 0 0 0 1.257-.062 13.38 13.38 0 0 0-.061 1.258c0 3.771 1.59 7.169 4.132 9.568-2.283 2.154-3.794 5.114-4.08 8.425zm23.745-34.347c-3.865-1.729-8.765-.282-12.222 1.254l-12.544 6.466c-2.692 1.204-5.646 1.806-8.6 1.806s-5.908-.602-8.601-1.806l-.151-.073-12.392-6.393c-3.458-1.535-8.358-2.982-12.222-1.254l-.669.298c2.244 18.328 11.238 36.95 34.035 41.95 22.797-5 31.79-23.622 34.034-41.95l-.668-.298" fill="#5c0836"/><path d="M34.632 39.442c-5.231 0-9.471-4.24-9.471-9.47s4.24-9.471 9.471-9.471 9.47 4.24 9.47 9.471-4.24 9.47-9.47 9.47zm34.055-19.273a4.64 4.64 0 0 0-4.606-4.107H34.632 5.183a4.64 4.64 0 0 0-4.606 4.107 87.06 87.06 0 0 0-.496 13.744c4.501-1.533 9.852-.943 15.934 1.777l.152.073 12.39 6.393a15.3 15.3 0 0 0 12.151 0l12.542-6.466c6.082-2.719 11.432-3.31 15.934-1.777.209-4.801.001-9.47-.496-13.744" fill="#ae0c33"/></svg>